<svg width="24" height="24" viewBox="0 0 24 24" fill="none" xmlns="http://www.w3.org/2000/svg">
<path fill-rule="evenodd" clip-rule="evenodd" d="M3 9L12 2L21 9V20C21 21.1046 20.1046 22 19 22H5C3.89543 22 3 21.1046 3 20V9Z" stroke="#B8B8B8" stroke-width="2" stroke-linecap="round" stroke-linejoin="round"/>
<path fill-rule="evenodd" clip-rule="evenodd" d="M7 14.5C6.44772 14.5 6 14.9477 6 15.5C6 16.0523 6.44772 16.5 7 16.5H17C17.5523 16.5 18 16.0523 18 15.5C18 14.9477 17.5523 14.5 17 14.5H7ZM7 17.5C6.44772 17.5 6 17.9477 6 18.5C6 19.0523 6.44772 19.5 7 19.5H17C17.5523 19.5 18 19.0523 18 18.5C18 17.9477 17.5523 17.5 17 17.5H7Z" fill="#B8B8B8"/>
</svg>
