<svg width="24" height="24" viewBox="0 0 24 24" fill="none" xmlns="http://www.w3.org/2000/svg">
<path fill-rule="evenodd" clip-rule="evenodd" d="M2 2H9.5969V9.53846H2V2ZM4.48062 4.46154H6.96124V6.92308H4.48062V4.46154ZM14.4031 2H22V9.53846H14.4031V2ZM17.0387 4.46154H19.5194V6.92308H17.0387V4.46154ZM9.5969 14.4615H2V22H9.5969V14.4615ZM6.96124 16.9231H4.48062V19.3846H6.96124V16.9231ZM4.48062 10.7692H2V13.2308H4.48062V10.7692ZM10.6823 10.7692H8.20166V13.2308H10.6823V15.6923H13.1629V10.7692H10.6823ZM16.8837 15.6923H14.4031V16.9231H13.1627H12.5426H10.6821V21.8462H13.1627V19.3846H14.4031H15.0232H16.8837V15.6923ZM19.3643 15.6923H21.8449V19.3846L19.3644 19.3846V21.8462H16.8838V19.3846L19.3643 19.3846V15.6923ZM13.1627 4.61539H10.6821V9.53846H13.1627V4.61539ZM14.4031 10.7692H16.8837V13.2308H14.4031V10.7692ZM19.3643 13.2308L16.8838 13.2308V15.6923H19.3644V13.2308L21.8449 13.2308V10.7692H19.3643V13.2308Z" fill="#111111"/>
</svg>
