<svg width="24" height="24" viewBox="0 0 24 24" fill="none" xmlns="http://www.w3.org/2000/svg">
<path fill-rule="evenodd" clip-rule="evenodd" d="M21 15.9979V7.99795C20.9993 7.28415 20.6182 6.62485 20 6.26795L13 2.26795C12.3812 1.91068 11.6188 1.91068 11 2.26795L4 6.26795C3.38183 6.62485 3.00073 7.28415 3 7.99795V15.9979C3.00073 16.7117 3.38183 17.371 4 17.7279L11 21.7279C11.6188 22.0852 12.3812 22.0852 13 21.7279L20 17.7279C20.6182 17.371 20.9993 16.7117 21 15.9979Z" fill="#111111" stroke="#111111" stroke-width="2" stroke-linecap="round" stroke-linejoin="round"/>
<path d="M16.5 9.39795L7.5 4.20795" stroke="#111111" stroke-width="2" stroke-linecap="round" stroke-linejoin="round"/>
<path fill-rule="evenodd" clip-rule="evenodd" d="M3.77073 6.09234C3.29266 5.8158 2.68094 5.97916 2.4044 6.45722C2.12785 6.93528 2.29122 7.54701 2.76928 7.82355L11 12.5847V22.0779C11 22.6302 11.4477 23.0779 12 23.0779C12.5523 23.0779 13 22.6302 13 22.0779V12.5847L21.2307 7.82355C21.7088 7.54701 21.8722 6.93528 21.5956 6.45722C21.3191 5.97916 20.7073 5.8158 20.2293 6.09234L12 10.8527L3.77073 6.09234Z" fill="white"/>
</svg>
