<svg width="24" height="24" viewBox="0 0 24 24" fill="none" xmlns="http://www.w3.org/2000/svg">
<path fill-rule="evenodd" clip-rule="evenodd" d="M21 15.9979V7.99795C20.9993 7.28415 20.6182 6.62485 20 6.26795L13 2.26795C12.3812 1.91068 11.6188 1.91068 11 2.26795L4 6.26795C3.38183 6.62485 3.00073 7.28415 3 7.99795V15.9979C3.00073 16.7117 3.38183 17.3711 4 17.7279L11 21.7279C11.6188 22.0852 12.3812 22.0852 13 21.7279L20 17.7279C20.6182 17.3711 20.9993 16.7117 21 15.9979Z" stroke="#B8B8B8" stroke-width="2" stroke-linecap="round" stroke-linejoin="round"/>
<path d="M16.5 9.39795L7.5 4.20795" stroke="#B8B8B8" stroke-width="2" stroke-linecap="round" stroke-linejoin="round"/>
<path fill-rule="evenodd" clip-rule="evenodd" d="M3.77073 6.09232C3.29266 5.81578 2.68094 5.97914 2.4044 6.45721C2.12785 6.93527 2.29122 7.547 2.76928 7.82354L11 12.5847V22.0779C11 22.6302 11.4477 23.0779 12 23.0779C12.5523 23.0779 13 22.6302 13 22.0779V12.5847L21.2307 7.82354C21.7088 7.547 21.8722 6.93527 21.5956 6.45721C21.3191 5.97914 20.7073 5.81578 20.2293 6.09232L12 10.8527L3.77073 6.09232Z" fill="#B8B8B8"/>
</svg>
