<svg width="24" height="24" viewBox="0 0 24 24" fill="none" xmlns="http://www.w3.org/2000/svg">
<path d="M17.4545 5.87995L11.0909 2.24359C10.5284 1.9188 9.83527 1.9188 9.27273 2.24359L2.90909 5.87995C2.34712 6.20441 2.00067 6.80377 2 7.45268V15.7248" stroke="#B8B8B8" stroke-width="2" stroke-linecap="round" stroke-linejoin="round"/>
<path fill-rule="evenodd" clip-rule="evenodd" d="M22 19.3068V11.0568C21.9993 10.3207 21.6529 9.64076 21.0909 9.27271H6.54544C5.98347 9.64076 5.63702 10.3207 5.63635 11.0568V19.3068C5.63702 20.0429 5.98347 20.7228 6.54544 21.0909H21.0909C21.6529 20.7228 21.9993 20.0429 22 19.3068Z" stroke="#B8B8B8" stroke-width="2" stroke-linecap="round" stroke-linejoin="round"/>
<path d="M21.0909 11.0909L14.7273 14.7273C14.1647 15.0521 13.4717 15.0521 12.9091 14.7273L6.54547 11.0909" stroke="#B8B8B8" stroke-width="2" stroke-linecap="round" stroke-linejoin="round"/>
</svg>
